<svg width="52" height="66" viewBox="0 0 52 66" fill="none" xmlns="http://www.w3.org/2000/svg">
<path d="M42.8185 3.45304C41.7346 3.4529 40.6608 3.66241 39.6563 4.06987C35.3564 -0.867955 27.8678 -1.385 22.9299 2.9149C21.1747 4.44333 19.9082 6.45483 19.2883 8.69826C15.0992 9.22849 11.9526 12.7831 11.9346 17.0056V23.9504H8.14254C4.09289 23.959 0.811259 27.2383 0.799538 31.288V44.969C0.799538 49.0084 4.10314 52.2276 8.14254 52.2276H11.9346V60.8896C11.9346 63.7454 14.3126 66 17.1686 66H46.0039C48.8597 66 51.2005 63.7454 51.2005 60.8896V11.8243C51.1905 7.20103 47.4419 3.45715 42.8185 3.45304ZM11.9346 49.2974H8.14254C5.7189 49.2974 3.72982 47.3927 3.72982 44.969V31.288C3.73935 28.8557 5.71026 26.8873 8.14254 26.8807H11.9346V49.2974ZM48.2702 60.8896C48.2702 62.1295 47.2446 63.0697 46.0039 63.0697H17.1686C15.9285 63.0697 14.8649 62.1295 14.8649 60.8896V57.2091H48.2702V60.8896ZM48.2702 54.2789H14.8649V18.5294H19.8464V43.5731C19.8464 46.0411 21.847 48.0417 24.3151 48.0417C26.7831 48.0417 28.7838 46.0411 28.7838 43.5731V18.5294H48.2702V54.2789ZM48.2702 15.5991H27.3554C26.5464 15.5991 25.8535 16.1967 25.8535 17.0056V43.5731C25.8535 44.4227 25.1647 45.1115 24.3151 45.1115C23.4654 45.1115 22.7767 44.4227 22.7767 43.5731V17.0056C22.7717 16.2234 22.1333 15.5932 21.3511 15.5982C21.3379 15.5983 21.3247 15.5985 21.3115 15.5991H15.1197C15.7581 13.2308 17.908 11.5871 20.3607 11.5921C20.3886 11.5921 20.4169 11.5774 20.4451 11.5781C21.1852 11.6076 21.8311 11.0804 21.9506 10.3495C22.7698 5.50351 27.3623 2.23903 32.2084 3.05819C34.5668 3.45685 36.6655 4.78823 38.0312 6.75196C38.4728 7.38607 39.331 7.56834 39.9921 7.16821C42.574 5.61135 45.9292 6.44238 47.486 9.02425C47.9957 9.86949 48.2667 10.8372 48.2702 11.8243V15.5991Z" fill="#048750"/>
</svg>
