<svg width="66" height="66" viewBox="0 0 66 66" fill="none" xmlns="http://www.w3.org/2000/svg">
<path d="M50.0133 5.22676V4.43109C50.0133 2.00493 48.0754 0 45.6493 0H20.3507C17.9246 0 15.9867 2.00493 15.9867 4.43109V5.22676C13.8763 5.59563 12.3323 7.42207 12.32 9.56443V56.4227C12.3323 58.565 13.8761 60.3916 15.9867 60.7605V61.5693C15.9867 63.9951 17.9246 66 20.3507 66H45.6493C48.0754 66 50.0133 63.9951 50.0133 61.5689V60.76C52.1236 60.3912 53.6675 58.5649 53.68 56.4227V9.56443C53.6677 7.42207 52.1237 5.59563 50.0133 5.22676ZM18.92 4.43109C18.9017 3.62252 19.5422 2.95211 20.3507 2.93333H45.6493C46.4578 2.95211 47.0983 3.62252 47.08 4.43109V5.13333H18.92V4.43109ZM47.08 61.5689C47.0983 62.3775 46.4578 63.0479 45.6493 63.0667H20.3507C19.5422 63.0479 18.9017 62.3775 18.92 61.5689V60.8667H47.08V61.5689ZM50.7467 56.4227C50.7467 57.2309 50.1247 57.9333 49.3159 57.9333H16.6841C15.8754 57.9333 15.2533 57.2309 15.2533 56.4227V49.1333H50.7467V56.4227ZM50.7467 46.2H15.2533V19.8H50.7467V46.2ZM50.7467 16.8667H15.2533V9.56443C15.235 8.75585 15.8755 8.08544 16.6841 8.06667H49.3159C50.1245 8.08544 50.765 8.75585 50.7467 9.56443V16.8667Z" fill="#048750"/>
<path d="M33 22.4038C28.0064 22.4038 23.9437 27.1573 23.9437 33C23.9437 38.8428 28.0063 43.5963 33 43.5963C37.9937 43.5963 42.0562 38.8428 42.0562 33C42.0562 27.1573 37.9935 22.4038 33 22.4038ZM33 40.6629C29.6237 40.6629 26.8771 37.2253 26.8771 33C26.8771 28.7747 29.6237 25.3371 33 25.3371C36.3762 25.3371 39.1229 28.7747 39.1229 33C39.1229 37.2253 36.3762 40.6629 33 40.6629Z" fill="#048750"/>
</svg>
