<svg width="61" height="66" viewBox="0 0 61 66" fill="none" xmlns="http://www.w3.org/2000/svg">
<path d="M55.5476 4.87137C52.4291 1.75255 48.1994 0.000193154 43.7889 6.12294e-05C39.3761 -0.0119439 35.142 1.74186 32.0302 4.87071C31.515 5.38588 31.515 6.22123 32.0302 6.73639L36.447 11.1534C32.8253 10.8791 28.5203 10.7237 24.2841 10.7237C18.0934 10.7237 12.2644 11.0462 7.87109 11.632C5.68682 11.9229 3.95597 12.2672 2.72722 12.6544C1.99385 12.8855 0.067228 13.4941 0.0029807 15.0261C0.00205723 15.0401 0.00166139 15.0542 0.00126562 15.0682C0.000869845 15.0822 -5.34058e-05 15.0921 -5.34058e-05 15.1045C-5.34058e-05 15.1169 0.00113387 15.1309 0.00139772 15.1433C0.00166157 15.1557 0.00218908 15.1732 0.00311255 15.1883C0.0318721 15.8265 0.377383 16.3042 0.831467 16.6607L22.9531 46.1641V63.3616H15.1156C14.387 63.3616 13.7964 63.9522 13.7964 64.6808C13.7964 65.4094 14.387 66.0001 15.1156 66.0001H33.4531C34.1817 66.0001 34.7724 65.4094 34.7724 64.6808C34.7724 63.9522 34.1817 63.3616 33.4531 63.3616H25.5916V46.1641L45.2494 19.9614L53.6783 28.3884C54.1944 28.9035 55.0302 28.9035 55.5462 28.3884C62.0408 21.8948 62.0413 11.3658 55.5476 4.87137ZM9.37028 14.1038V14.1035C13.4962 13.626 18.7929 13.3622 24.2841 13.3622C29.7706 13.3622 35.359 13.626 39.3641 14.0709L41.1451 15.8518C36.8971 16.4824 30.8192 16.8477 24.2842 16.8477C18.793 16.8477 13.4964 16.5839 9.37041 16.1055C6.43734 15.7653 4.72166 15.3957 3.73249 15.105C4.72113 14.8133 6.4372 14.4439 9.37028 14.1038ZM24.2841 43.5257L14.5573 30.5567C14.6605 30.617 14.7641 30.6787 14.8705 30.7423C15.9772 31.404 17.2319 32.1539 19.7206 32.1539C22.1986 32.1539 23.4902 31.4096 24.6296 30.7529C25.6461 30.1671 26.449 29.7043 28.2211 29.7043C29.9757 29.7043 30.7357 30.1601 31.6976 30.7372C32.1959 31.0513 32.7179 31.3261 33.2589 31.5592L24.2841 43.5257ZM34.9258 29.3366C34.187 29.1526 33.6704 28.8439 33.0548 28.4746C31.9542 27.815 30.7066 27.066 28.2211 27.066C25.743 27.066 24.4515 27.8104 23.3122 28.467C22.2957 29.0529 21.4928 29.5155 19.7206 29.5155C17.9602 29.5155 17.1943 29.0576 16.2246 28.4778C15.2073 27.8695 14.0624 27.1883 11.9513 27.0819L5.26268 18.1638C6.04196 18.3111 6.91121 18.4486 7.87056 18.5766C12.2637 19.1625 18.0929 19.485 24.2836 19.485C31.8812 19.485 38.914 18.9932 43.305 18.1629L34.9258 29.3366ZM44.2788 15.2537V15.2533L42.8957 13.8702C43.9519 13.5544 45.0925 13.9399 45.7406 14.8317C45.3592 14.9649 44.8394 15.1147 44.2788 15.2537ZM54.5709 25.5458V25.5454L48.1366 19.1108C49.6389 16.6219 48.8391 13.3864 46.3502 11.8842C44.6771 10.8743 42.5822 10.8745 40.9092 11.8846L34.8718 5.84669C40.8272 0.922478 49.6467 1.75835 54.5709 7.71356C58.8494 12.8879 58.8494 20.3717 54.5709 25.5458Z" fill="#048750"/>
</svg>
