<svg width="44" height="66" viewBox="0 0 44 66" fill="none" xmlns="http://www.w3.org/2000/svg">
<path d="M42.113 17.1453L37.2264 1.13002C37.0323 0.473103 36.4364 0.0165 35.7516 0H8.24901C7.56419 0.0165 6.96834 0.473103 6.77419 1.13002L1.88711 17.154C0.111585 22.9859 -0.156733 29.1726 1.10744 35.1364C2.36838 41.0185 7.58038 45.2111 13.5961 45.1822H20.4582V62.9159H10.3072C9.45552 62.9159 8.76514 63.6063 8.76514 64.4579C8.76514 65.3096 9.45552 66 10.3072 66H33.6934C34.5451 66 35.2355 65.3096 35.2355 64.4579C35.2355 63.6063 34.5451 62.9159 33.6934 62.9159H23.5424V45.1822H30.4045C36.4248 45.2166 41.6412 41.017 42.8927 35.128C44.1567 29.1643 43.8885 22.9774 42.113 17.1453ZM4.83629 18.0185L9.39044 3.08411H34.6101L39.1638 18.0185C39.7936 20.0868 40.2171 22.2125 40.4279 24.3645H3.57273C3.78322 22.2125 4.20651 20.0868 4.83629 18.0185ZM39.8764 34.4495C38.9068 38.907 34.9661 42.0892 30.4044 42.0981H13.5959C9.03438 42.0889 5.09381 38.9068 4.12432 34.4495C3.63688 32.1482 3.39771 29.801 3.41066 27.4486H40.5901C40.603 29.801 40.3639 32.148 39.8764 34.4495Z" fill="#048750"/>
</svg>
